<svg width="14" height="14" viewBox="0 0 14 14" fill="none" xmlns="http://www.w3.org/2000/svg">
<path d="M4.30512 12.256C4.37285 12.3239 4.45332 12.3778 4.5419 12.4145C4.63049 12.4513 4.72546 12.4702 4.82137 12.4702C4.91728 12.4702 5.01225 12.4513 5.10084 12.4145C5.18942 12.3778 5.26989 12.3239 5.33762 12.256L10.1851 7.40849C10.2392 7.35453 10.2821 7.29043 10.3114 7.21986C10.3406 7.14929 10.3557 7.07364 10.3557 6.99724C10.3557 6.92085 10.3406 6.8452 10.3114 6.77463C10.2821 6.70406 10.2392 6.63996 10.1851 6.58599L5.33762 1.73849C5.05179 1.45266 4.59095 1.45266 4.30512 1.73849C4.01929 2.02433 4.01929 2.48516 4.30512 2.77099L8.52845 7.00016L4.29929 11.2293C4.01929 11.5093 4.01929 11.976 4.30512 12.256Z" fill="black"/>
</svg>
