<svg width="14" height="14" viewBox="0 0 14 14" fill="none" xmlns="http://www.w3.org/2000/svg">
<path d="M4.30512 12.2558C4.37285 12.3237 4.45332 12.3776 4.5419 12.4144C4.63049 12.4511 4.72546 12.47 4.82137 12.47C4.91728 12.47 5.01225 12.4511 5.10084 12.4144C5.18942 12.3776 5.26989 12.3237 5.33762 12.2558L10.1851 7.40833C10.2392 7.35436 10.2821 7.29026 10.3114 7.21969C10.3406 7.14912 10.3557 7.07348 10.3557 6.99708C10.3557 6.92068 10.3406 6.84503 10.3114 6.77446C10.2821 6.7039 10.2392 6.63979 10.1851 6.58583L5.33762 1.73833C5.05179 1.45249 4.59095 1.45249 4.30512 1.73833C4.01929 2.02416 4.01929 2.48499 4.30512 2.77083L8.52845 6.99999L4.29929 11.2292C4.01929 11.5092 4.01929 11.9758 4.30512 12.2558Z" fill="black"/>
</svg>
