<svg width="127" height="30" viewBox="0 0 127 30" fill="rgb(225,0,0,1);" xmlns="http://www.w3.org/2000/svg">
<path d="M5.12016 29.32C4.88016 29.32 4.49349 29.3067 3.96016 29.28C3.42682 29.2533 2.86682 29.1733 2.28016 29.04C1.69349 28.9333 1.18682 28.76 0.760156 28.52C0.360156 28.2533 0.160156 27.9067 0.160156 27.48C0.160156 27.24 0.21349 26.8267 0.320156 26.24C0.426823 25.6533 0.600156 25.1067 0.840156 24.6C1.08016 24.0667 1.40016 23.7867 1.80016 23.76C2.01349 23.76 2.28016 23.8133 2.60016 23.92C2.92016 24.0267 3.40016 24.08 4.04016 24.08C5.24016 24.08 6.09349 23.76 6.60016 23.12C7.13349 22.4533 7.40016 21.3867 7.40016 19.92V2.2C7.40016 1.32 8.20016 0.88 9.80016 0.88H11.2002C12.8002 0.88 13.6002 1.32 13.6002 2.2V20.92C13.6002 22.6 13.3068 24.08 12.7202 25.36C12.1335 26.6133 11.2135 27.5867 9.96016 28.28C8.73349 28.9733 7.12016 29.32 5.12016 29.32ZM18.6939 29.08C17.0672 29.08 16.2539 28.7867 16.2539 28.2C16.2539 28.0933 16.2672 27.9867 16.2939 27.88C16.3472 27.7467 16.3872 27.6133 16.4139 27.48L25.2139 1.76C25.4272 1.2 26.1872 0.919999 27.4939 0.919999H29.5739C30.9072 0.919999 31.6672 1.2 31.8539 1.76L40.6539 27.48C40.7339 27.7467 40.7739 27.9867 40.7739 28.2C40.7739 28.7867 40.1072 29.08 38.7739 29.08H37.0139C36.4272 29.08 35.9339 29.0267 35.5339 28.92C35.1339 28.7867 34.8806 28.56 34.7739 28.24L33.1739 23.36H23.7339L22.1339 28.24C22.0272 28.5333 21.8139 28.7467 21.4939 28.88C21.1739 29.0133 20.7739 29.08 20.2939 29.08H18.6939ZM25.4539 18.08H31.4539L29.1739 10.96C29.0406 10.5333 28.9206 10.1067 28.8139 9.68C28.7339 9.25333 28.6539 8.82667 28.5739 8.4H28.4139C28.3339 8.82667 28.2539 9.25333 28.1739 9.68C28.0939 10.1067 27.9739 10.5333 27.8139 10.96L25.4539 18.08ZM57.0652 22.32C56.3718 22.32 55.8385 22.0667 55.4652 21.56L50.5452 12.76C50.3852 12.4933 50.2252 12.24 50.0652 12C49.9318 11.7333 49.7985 11.4667 49.6652 11.2L49.5052 11.24C49.5052 11.56 49.5052 11.88 49.5052 12.2C49.5052 12.52 49.5052 12.8533 49.5052 13.2V27.8C49.5052 28.6533 48.7052 29.08 47.1052 29.08H45.9452C44.3452 29.08 43.5452 28.6533 43.5452 27.8V2.2C43.5452 1.34667 44.3452 0.919999 45.9452 0.919999H48.0652C48.6518 0.919999 49.1585 0.999999 49.5852 1.16C50.0385 1.32 50.3718 1.6 50.5852 2L57.2252 13.84C57.2785 13.9467 57.3452 14.0533 57.4252 14.16C57.5052 14.2667 57.5718 14.3867 57.6252 14.52C57.6785 14.3867 57.7318 14.2667 57.7852 14.16C57.8652 14.0533 57.9318 13.9467 57.9852 13.84L64.7452 2C64.9585 1.6 65.2785 1.32 65.7052 1.16C66.1585 0.999999 66.6785 0.919999 67.2652 0.919999H69.3452C70.9452 0.919999 71.7452 1.34667 71.7452 2.2V27.8C71.7452 28.6533 70.9452 29.08 69.3452 29.08H68.1852C66.5852 29.08 65.7852 28.6533 65.7852 27.8V13.2C65.7852 12.8533 65.7852 12.52 65.7852 12.2C65.7852 11.88 65.7852 11.56 65.7852 11.24L65.6252 11.2C65.4918 11.4667 65.3452 11.7333 65.1852 12C65.0518 12.24 64.9052 12.4933 64.7452 12.76L59.8252 21.56C59.4518 22.0667 58.9185 22.32 58.2252 22.32H57.0652ZM79.1361 29C78.0694 29 77.5361 28.4667 77.5361 27.4V2.6C77.5361 1.53333 78.0694 0.999998 79.1361 0.999998H87.6961C90.4428 0.999998 92.7628 1.54666 94.6561 2.64C96.5761 3.70667 98.0294 5.28 99.0161 7.36C100.003 9.44 100.496 11.9867 100.496 15C100.496 17.2667 100.216 19.2667 99.6561 21C99.0961 22.7333 98.2694 24.2 97.1761 25.4C96.0828 26.5733 94.7361 27.4667 93.1361 28.08C91.5628 28.6933 89.7494 29 87.6961 29H79.1361ZM83.7361 23.76H87.6961C89.1361 23.76 90.3361 23.4267 91.2961 22.76C92.2561 22.0933 92.9761 21.1067 93.4561 19.8C93.9361 18.4933 94.1761 16.8933 94.1761 15C94.1761 13.1067 93.9361 11.5067 93.4561 10.2C92.9761 8.89333 92.2561 7.90666 91.2961 7.24C90.3361 6.57333 89.1361 6.24 87.6961 6.24H83.7361V23.76ZM104.749 29.08C103.122 29.08 102.309 28.7867 102.309 28.2C102.309 28.0933 102.322 27.9867 102.349 27.88C102.402 27.7467 102.442 27.6133 102.469 27.48L111.269 1.76C111.482 1.2 112.242 0.919999 113.549 0.919999H115.629C116.962 0.919999 117.722 1.2 117.909 1.76L126.709 27.48C126.789 27.7467 126.829 27.9867 126.829 28.2C126.829 28.7867 126.162 29.08 124.829 29.08H123.069C122.482 29.08 121.989 29.0267 121.589 28.92C121.189 28.7867 120.935 28.56 120.829 28.24L119.229 23.36H109.789L108.189 28.24C108.082 28.5333 107.869 28.7467 107.549 28.88C107.229 29.0133 106.829 29.08 106.349 29.08H104.749ZM111.509 18.08H117.509L115.229 10.96C115.095 10.5333 114.975 10.1067 114.869 9.68C114.789 9.25333 114.709 8.82667 114.629 8.4H114.469C114.389 8.82667 114.309 9.25333 114.229 9.68C114.149 10.1067 114.029 10.5333 113.869 10.96L111.509 18.08Z" fill="#85E2FF"/>
</svg>
