<svg width="24" height="20" viewBox="0 0 24 20" fill="none" xmlns="http://www.w3.org/2000/svg">
<path fill-rule="evenodd" clip-rule="evenodd" d="M0 3.60001C0 2.80436 0.31607 2.04129 0.87868 1.47869C1.44129 0.916077 2.20435 0.600006 3 0.600006H21C21.394 0.600006 21.7841 0.677603 22.1481 0.828368C22.512 0.979132 22.8427 1.20011 23.1213 1.47869C23.3999 1.75726 23.6209 2.08798 23.7716 2.45196C23.9224 2.81593 24 3.20604 24 3.60001V16.2667C24 16.6606 23.9224 17.0507 23.7716 17.4147C23.6209 17.7787 23.3999 18.1094 23.1213 18.388C22.8427 18.6666 22.512 18.8875 22.1481 19.0383C21.7841 19.1891 21.394 19.2667 21 19.2667H3C2.20435 19.2667 1.44129 18.9506 0.87868 18.388C0.31607 17.8254 0 17.0623 0 16.2667V3.60001ZM2 11.3467V16.2667C2 16.8187 2.448 17.2667 3 17.2667H21C21.2652 17.2667 21.5196 17.1613 21.7071 16.9738C21.8946 16.7862 22 16.5319 22 16.2667V12.68L19.04 9.72134C18.8525 9.53407 18.5983 9.42889 18.3333 9.42889C18.0683 9.42889 17.8142 9.53407 17.6267 9.72134L15.08 12.2667L15.7067 12.8933C15.8049 12.9849 15.8837 13.0953 15.9384 13.218C15.993 13.3406 16.0224 13.473 16.0248 13.6073C16.0272 13.7416 16.0025 13.875 15.9522 13.9995C15.9019 14.124 15.827 14.2371 15.7321 14.3321C15.6371 14.427 15.524 14.5019 15.3995 14.5522C15.2749 14.6025 15.1416 14.6272 15.0073 14.6248C14.873 14.6224 14.7406 14.593 14.6179 14.5384C14.4953 14.4837 14.3849 14.4049 14.2933 14.3067L7.37333 7.38801C7.18583 7.20074 6.93167 7.09555 6.66667 7.09555C6.40167 7.09555 6.1475 7.20074 5.96 7.38801L2 11.3467ZM14.6667 5.93334C14.6667 6.28696 14.5262 6.6261 14.2761 6.87615C14.0261 7.1262 13.687 7.26667 13.3333 7.26667C12.9797 7.26667 12.6406 7.1262 12.3905 6.87615C12.1405 6.6261 12 6.28696 12 5.93334C12 5.57972 12.1405 5.24058 12.3905 4.99053C12.6406 4.74048 12.9797 4.60001 13.3333 4.60001C13.687 4.60001 14.0261 4.74048 14.2761 4.99053C14.5262 5.24058 14.6667 5.57972 14.6667 5.93334Z" fill="black"/>
</svg>
